<svg width="300" height="120" viewBox="0 0 300 120" fill="none" xmlns="http://www.w3.org/2000/svg">
<rect width="300" height="120" fill="white"/>
<path d="M21.75 36.875C24.5417 37.2083 26.9583 37.4583 29 37.625C31.0417 37.75 32.7292 37.8542 34.0625 37.9375C35.6042 38.0208 36.8958 38.0417 37.9375 38C39.0208 37.9583 40.5 37.8542 42.375 37.6875C43.9583 37.5625 46.0417 37.3958 48.625 37.1875C51.2083 36.9375 54.4375 36.6042 58.3125 36.1875C58.3542 37.1458 58.375 38.0833 58.375 39C58.4167 39.875 58.4583 40.6458 58.5 41.3125C58.5417 42.1042 58.5625 42.8333 58.5625 43.5C58.5625 44.2083 58.5208 45.1042 58.4375 46.1875C58.3542 47.1042 58.2083 48.2708 58 49.6875C57.8333 51.0625 57.5625 52.7083 57.1875 54.625C56.6042 52.375 56.0417 50.5625 55.5 49.1875C54.9583 47.7708 54.4583 46.6458 54 45.8125C53.5 44.8542 53 44.125 52.5 43.625C51.9583 43.25 51.3125 42.9375 50.5625 42.6875C49.8958 42.4792 49.0417 42.3125 48 42.1875C47 42.0625 45.8125 42.0833 44.4375 42.25C44.2292 47.75 44.0833 52.2083 44 55.625C43.9167 59.0417 43.8542 61.7083 43.8125 63.625C43.7708 65.9167 43.75 67.5625 43.75 68.5625C43.7917 69.9792 44.0208 71.375 44.4375 72.75C44.7708 73.9167 45.3125 75.125 46.0625 76.375C46.8125 77.625 47.8958 78.7292 49.3125 79.6875H41.6875C40.9792 79.6875 40.1042 79.7292 39.0625 79.8125C38.1875 79.8958 37.0625 79.9792 35.6875 80.0625C34.3542 80.1458 32.7917 80.2917 31 80.5C31.625 79.4167 32.125 78.4375 32.5 77.5625C32.875 76.6875 33.1667 75.9375 33.375 75.3125C33.625 74.5625 33.8125 73.8958 33.9375 73.3125C33.9792 72.4792 34.0833 70.7917 34.25 68.25C34.2917 67.2083 34.3333 65.9167 34.375 64.375C34.4583 62.8333 34.5417 61 34.625 58.875C34.75 56.75 34.8542 54.3125 34.9375 51.5625C35.0625 48.7708 35.1875 45.625 35.3125 42.125C34.5625 41.9167 33.8542 41.9375 33.1875 42.1875C32.5208 42.3958 31.9375 42.6667 31.4375 43C30.8542 43.4167 30.2917 43.9167 29.75 44.5C29.2083 45.2083 28.6042 46.125 27.9375 47.25C27.3542 48.2083 26.6875 49.4792 25.9375 51.0625C25.1875 52.6042 24.3333 54.5208 23.375 56.8125C23.1667 54.3958 23.0208 52.4167 22.9375 50.875C22.8542 49.2917 22.7917 48.0625 22.75 47.1875C22.7083 46.1458 22.6875 45.375 22.6875 44.875C22.6875 44.4167 22.6458 43.8125 22.5625 43.0625C22.4792 42.4375 22.375 41.625 22.25 40.625C22.125 39.5833 21.9583 38.3333 21.75 36.875ZM57.625 54.5625L69.125 54.6875C68.4583 57.2292 67.9583 59.3958 67.625 61.1875C67.3333 62.9792 67.1458 64.4792 67.0625 65.6875C66.8958 67.0625 66.8542 68.2292 66.9375 69.1875C67.0625 70.0625 67.2708 71 67.5625 72C67.8125 72.8333 68.1875 73.7917 68.6875 74.875C69.1875 75.9583 69.8542 77.0417 70.6875 78.125C70.1875 77.9583 69.6458 77.8333 69.0625 77.75C68.4792 77.6667 67.9375 77.6042 67.4375 77.5625C66.8542 77.5208 66.2708 77.5208 65.6875 77.5625C65.1042 77.6042 64.4583 77.6667 63.75 77.75C63.1667 77.8333 62.4583 77.9375 61.625 78.0625C60.7917 78.1875 59.9167 78.3542 59 78.5625C59.625 76.6875 60.1042 75.0625 60.4375 73.6875C60.8125 72.3125 61.0833 71.1667 61.25 70.25C61.4167 69.1667 61.5208 68.2917 61.5625 67.625C61.5625 66.7917 61.5625 65.8542 61.5625 64.8125C61.5625 63.7292 61.5625 62.6875 61.5625 61.6875C61.5625 60.6875 61.5417 59.8125 61.5 59.0625C61.4583 58.2708 61.375 57.7708 61.25 57.5625L60.625 56.9375C60.375 56.7292 60 56.4375 59.5 56.0625C59.0417 55.6458 58.4167 55.1458 57.625 54.5625ZM62.0625 44.9375C62.9375 44.4792 63.8125 44.3542 64.6875 44.5625C65.6042 44.7708 66.3125 45.1667 66.8125 45.75C67.3125 46.3333 67.4792 47.0208 67.3125 47.8125C67.1875 48.6042 66.5208 49.375 65.3125 50.125C64.1042 50.8333 63.0417 51.0833 62.125 50.875C61.2083 50.6667 60.5625 50.2292 60.1875 49.5625C59.8125 48.8958 59.75 48.125 60 47.25C60.25 46.3333 60.9375 45.5625 62.0625 44.9375ZM72.3125 37.4375C72.7708 37.6458 73.3125 37.7917 73.9375 37.875C74.6042 37.9583 75.2292 38 75.8125 38C76.5208 38 77.25 37.9792 78 37.9375C78.75 37.8958 79.6667 37.8125 80.75 37.6875C81.625 37.6042 82.7083 37.5 84 37.375C85.2917 37.25 86.7292 37.0833 88.3125 36.875C87.7292 37.1667 87.2292 37.4792 86.8125 37.8125C86.3958 38.1458 86.0417 38.4792 85.75 38.8125C85.4167 39.1875 85.1458 39.5625 84.9375 39.9375C84.6458 40.4375 84.25 41.3125 83.75 42.5625C83.2917 43.7708 82.8125 45.125 82.3125 46.625C81.8542 48.125 81.4375 49.6458 81.0625 51.1875C80.7292 52.7292 80.5417 54.0417 80.5 55.125C80.4583 56.0417 80.4167 57.0833 80.375 58.25C80.3333 59.25 80.2917 60.4792 80.25 61.9375C80.2083 63.3958 80.1667 65.0625 80.125 66.9375C83.125 64.7708 85.4375 63.0417 87.0625 61.75C88.6875 60.4167 89.875 59.3958 90.625 58.6875C91.5 57.8958 92.0208 57.3333 92.1875 57C92.1458 56.75 92.0417 56.4792 91.875 56.1875C91.6667 55.9375 91.375 55.6458 91 55.3125C90.625 54.9792 90.0625 54.6042 89.3125 54.1875C90.3958 54.3125 91.3333 54.3958 92.125 54.4375C92.9583 54.4792 93.6667 54.5208 94.25 54.5625C94.9167 54.6042 95.5 54.6042 96 54.5625C96.5417 54.5625 97.2083 54.5417 98 54.5C99.375 54.4583 101.5 54.3958 104.375 54.3125C101.583 55.7708 99.375 57.0208 97.75 58.0625C96.8333 58.6458 96.0208 59.1875 95.3125 59.6875C94.6042 60.2292 93.875 60.7917 93.125 61.375C92.4583 61.875 91.6875 62.4583 90.8125 63.125C89.9792 63.7917 89.1458 64.5 88.3125 65.25C89.7708 67.625 91.0417 69.5833 92.125 71.125C93.25 72.6667 94.1875 73.9167 94.9375 74.875C95.8125 76 96.5833 76.8958 97.25 77.5625C97.9167 78.1875 98.7917 78.8958 99.875 79.6875C100.792 80.3958 101.979 81.2292 103.438 82.1875C104.938 83.1042 106.75 84.1667 108.875 85.375C107.792 85.1667 106.75 85.0208 105.75 84.9375C104.75 84.8958 103.896 84.8958 103.188 84.9375C102.312 84.9792 101.521 85.0625 100.812 85.1875C100.062 85.3542 99.2292 85.5625 98.3125 85.8125C97.5208 86.0208 96.5833 86.2917 95.5 86.625C94.4583 87 93.3125 87.4792 92.0625 88.0625C92.8542 87.4792 93.4375 86.9167 93.8125 86.375C94.2292 85.875 94.5208 85.4583 94.6875 85.125C94.8542 84.7083 94.9167 84.3542 94.875 84.0625C94.6667 83.6458 94.1875 82.7917 93.4375 81.5C92.7292 80.4167 91.6875 78.8333 90.3125 76.75C88.9375 74.6667 86.9792 71.8333 84.4375 68.25C84.3125 68.2917 84.1042 68.4167 83.8125 68.625C83.5625 68.8333 83.1875 69.125 82.6875 69.5C82.1875 69.8333 81.5208 70.3333 80.6875 71L82.375 81.9375C82 82.1042 81.5833 82.25 81.125 82.375C80.7083 82.5 80.3125 82.6042 79.9375 82.6875C79.4792 82.8125 79.0208 82.8958 78.5625 82.9375C78.1042 82.9792 77.5625 83.0625 76.9375 83.1875C76.3958 83.2708 75.75 83.375 75 83.5C74.25 83.6667 73.3958 83.8542 72.4375 84.0625C72.9792 83.6875 73.4167 83.25 73.75 82.75C74.0833 82.2917 74.3542 81.8542 74.5625 81.4375C74.7708 80.9792 74.9583 80.5 75.125 80C75.2083 79.5833 75.2917 78.5 75.375 76.75C75.5 75 75.6042 72.9167 75.6875 70.5C75.7708 68.0417 75.8333 65.4167 75.875 62.625C75.9583 59.8333 76 57.2083 76 54.75C76 52.25 75.9792 50.0833 75.9375 48.25C75.8958 46.375 75.8125 45.1667 75.6875 44.625C75.4792 43.9583 75.2292 43.25 74.9375 42.5C74.6875 41.8333 74.3333 41.0833 73.875 40.25C73.4583 39.375 72.9375 38.4375 72.3125 37.4375Z" fill="#049267"/>
<path d="M101.375 43.125C102.625 43.25 103.667 43.3542 104.5 43.4375C105.375 43.5208 106.083 43.5833 106.625 43.625C107.25 43.6667 107.75 43.6875 108.125 43.6875C108.5 43.7292 109 43.7292 109.625 43.6875C110.167 43.6458 110.875 43.6042 111.75 43.5625C112.625 43.4792 113.729 43.3542 115.062 43.1875C114.771 43.6042 114.542 43.9792 114.375 44.3125C114.208 44.6042 114.062 44.875 113.938 45.125L113.562 45.875C113.479 46.125 113.396 46.375 113.312 46.625C113.229 46.8333 113.146 47.0833 113.062 47.375C113.021 47.6667 112.979 47.9792 112.938 48.3125H122.562L121.688 53.375L112.875 52.875C112.667 55 112.521 56.6458 112.438 57.8125C112.354 58.9792 112.271 59.8333 112.188 60.375L112.062 61.5C111.938 63.0833 111.812 64.8125 111.688 66.6875C111.562 68.5208 111.521 70.2292 111.562 71.8125C111.604 73.3958 111.75 74.7292 112 75.8125C112.25 76.8542 112.688 77.375 113.312 77.375C113.938 77.375 114.521 77.2083 115.062 76.875C115.604 76.5417 116.062 76.1458 116.438 75.6875C116.854 75.2292 117.167 74.7708 117.375 74.3125C117.583 73.8125 117.688 73.4375 117.688 73.1875C117.688 72.9375 117.625 72.6458 117.5 72.3125C117.292 71.6875 116.917 70.8958 116.375 69.9375C117.583 70.2292 118.646 70.5208 119.562 70.8125C120.021 70.9792 120.438 71.1458 120.812 71.3125C121.229 71.4792 121.708 71.6667 122.25 71.875C122.708 72.0833 123.292 72.3333 124 72.625C124.708 72.9167 125.542 73.2708 126.5 73.6875C125.583 73.8542 124.917 74.125 124.5 74.5C124.25 74.6667 124.062 74.8542 123.938 75.0625C123.646 75.5208 123.312 76.1458 122.938 76.9375C122.562 77.6875 122 78.4375 121.25 79.1875C120.5 79.9375 119.479 80.6042 118.188 81.1875C116.938 81.7708 115.25 82.1042 113.125 82.1875C110.917 82.2708 109.229 81.8958 108.062 81.0625C106.938 80.2292 106.104 79.2708 105.562 78.1875C105.062 77.0625 104.771 75.9583 104.688 74.875C104.604 73.7917 104.542 73.0625 104.5 72.6875C104.458 72.3125 104.458 71.375 104.5 69.875C104.542 68.375 104.604 66.7292 104.688 64.9375C104.771 63.1042 104.854 61.3542 104.938 59.6875C105.021 57.9792 105.062 56.7292 105.062 55.9375C105.062 55.5208 105.083 55.0833 105.125 54.625C105.125 54.25 105.125 53.8542 105.125 53.4375C105.167 52.9792 105.188 52.5417 105.188 52.125L96.125 52.0625L95.75 48.5L104.875 48.75C104.792 48.2917 104.688 47.875 104.562 47.5C104.479 47.0833 104.396 46.75 104.312 46.5C104.188 46.2083 104.062 45.9583 103.938 45.75C103.771 45.5417 103.583 45.3125 103.375 45.0625C103.167 44.8542 102.896 44.5833 102.562 44.25C102.229 43.9167 101.833 43.5417 101.375 43.125ZM128.625 57.1875C128.833 56.9375 128.958 56.4792 129 55.8125C129.083 55.1042 129.25 54.3125 129.5 53.4375C129.792 52.5625 130.271 51.6458 130.938 50.6875C131.604 49.7292 132.688 48.8333 134.188 48C135.646 47.1667 137.062 46.6667 138.438 46.5C139.812 46.3333 141.125 46.3958 142.375 46.6875C143.625 46.9792 144.792 47.4375 145.875 48.0625C147 48.6875 148.021 49.375 148.938 50.125C149.562 50.625 150.062 51.3542 150.438 52.3125C150.812 53.2292 151.104 54.2708 151.312 55.4375C151.521 56.6042 151.667 57.8333 151.75 59.125C151.875 60.375 151.958 61.6042 152 62.8125C152.042 63.9792 152.062 65.0625 152.062 66.0625C152.104 67.0208 152.188 67.8125 152.312 68.4375C152.479 69.3542 152.771 70.1458 153.188 70.8125C153.604 71.4375 154.062 71.9792 154.562 72.4375C155.062 72.8542 155.562 73.1875 156.062 73.4375C156.562 73.6875 157 73.875 157.375 74C157.625 74.125 157.854 74.2083 158.062 74.25C158.479 74.4167 158.771 74.4167 158.938 74.25C158.688 74.8333 158.458 75.3333 158.25 75.75C158.042 76.1667 157.875 76.5208 157.75 76.8125C157.583 77.1458 157.438 77.4167 157.312 77.625C157.188 77.875 157.042 78.1042 156.875 78.3125C156.75 78.5208 156.583 78.75 156.375 79C156.167 79.25 155.958 79.5208 155.75 79.8125C155.208 79.6042 154.688 79.3542 154.188 79.0625C153.729 78.7708 153.312 78.5 152.938 78.25C152.479 77.9583 152.062 77.6667 151.688 77.375C151.312 77.0833 150.958 76.75 150.625 76.375C150.333 76.0417 150.021 75.6875 149.688 75.3125C149.396 74.9375 149.146 74.5208 148.938 74.0625C148.688 74.6042 148.083 75.375 147.125 76.375C146.208 77.375 145 78.2917 143.5 79.125C142 79.9167 140.25 80.4792 138.25 80.8125C136.292 81.1458 134.125 80.9167 131.75 80.125C130.708 79.7917 129.729 79.3125 128.812 78.6875C127.896 78.0208 127.104 77.2292 126.438 76.3125C125.812 75.3958 125.354 74.3542 125.062 73.1875C124.812 71.9792 124.833 70.6458 125.125 69.1875C125.417 67.7292 125.938 66.5 126.688 65.5C127.438 64.5 128.333 63.6875 129.375 63.0625C130.417 62.4375 131.583 61.9583 132.875 61.625C134.167 61.2917 135.5 61.0625 136.875 60.9375C137.958 60.8958 139.042 60.9583 140.125 61.125C141.042 61.2917 142 61.6042 143 62.0625C144 62.4792 144.854 63.125 145.562 64C145.521 61.7917 145.438 60.0417 145.312 58.75C145.229 57.4167 145.146 56.3958 145.062 55.6875C144.896 54.8542 144.75 54.2708 144.625 53.9375C144.417 53.6458 144.188 53.3125 143.938 52.9375C143.729 52.5625 143.458 52.2292 143.125 51.9375C142.792 51.6042 142.375 51.3333 141.875 51.125C141.375 50.9167 140.792 50.8333 140.125 50.875C139.417 50.9167 138.854 51.1042 138.438 51.4375C138.021 51.7708 137.688 52.1667 137.438 52.625C137.229 53.0417 137.104 53.5 137.062 54C137.021 54.5 137.042 54.9375 137.125 55.3125C137.208 55.5625 137.333 55.8333 137.5 56.125C137.667 56.375 137.896 56.6458 138.188 56.9375C138.479 57.2292 138.875 57.4792 139.375 57.6875C138.417 57.8125 137.562 57.9167 136.812 58C136.062 58.0417 135.417 58.1042 134.875 58.1875C134.25 58.2708 133.708 58.3333 133.25 58.375C132.792 58.4167 132.25 58.5 131.625 58.625C131.083 58.7083 130.417 58.8125 129.625 58.9375C128.833 59.0625 127.917 59.2292 126.875 59.4375C127.125 59.1458 127.354 58.875 127.562 58.625C127.771 58.3333 127.958 58.0833 128.125 57.875C128.292 57.625 128.458 57.3958 128.625 57.1875ZM138 64.625C137.25 64.6667 136.5 64.8542 135.75 65.1875C135 65.4792 134.333 65.9167 133.75 66.5C133.167 67.0417 132.667 67.6875 132.25 68.4375C131.875 69.1458 131.688 69.9375 131.688 70.8125C131.688 71.6875 131.896 72.4583 132.312 73.125C132.771 73.75 133.354 74.2708 134.062 74.6875C134.812 75.1042 135.604 75.3542 136.438 75.4375C137.312 75.5208 138.167 75.4375 139 75.1875C139.792 74.8958 140.542 74.4375 141.25 73.8125C141.958 73.1458 142.562 72.4375 143.062 71.6875C143.562 70.8958 143.917 70.125 144.125 69.375C144.333 68.5833 144.354 67.9375 144.188 67.4375C143.854 66.3542 143.104 65.6042 141.938 65.1875C140.771 64.7292 139.458 64.5417 138 64.625ZM157.688 37.4375C158.146 37.6458 158.688 37.7917 159.312 37.875C159.979 37.9583 160.604 38 161.188 38C161.896 38 162.625 37.9792 163.375 37.9375C164.125 37.8958 165.042 37.8125 166.125 37.6875C167 37.6042 168.083 37.5 169.375 37.375C170.667 37.25 172.104 37.0833 173.688 36.875C173.104 37.1667 172.604 37.4792 172.188 37.8125C171.771 38.1458 171.417 38.4792 171.125 38.8125C170.792 39.1875 170.521 39.5625 170.312 39.9375C170.021 40.4375 169.625 41.3125 169.125 42.5625C168.667 43.7708 168.188 45.125 167.688 46.625C167.229 48.125 166.812 49.6458 166.438 51.1875C166.104 52.7292 165.917 54.0417 165.875 55.125C165.833 56.0417 165.792 57.0833 165.75 58.25C165.708 59.25 165.667 60.4792 165.625 61.9375C165.583 63.3958 165.542 65.0625 165.5 66.9375C168.5 64.7708 170.812 63.0417 172.438 61.75C174.062 60.4167 175.25 59.3958 176 58.6875C176.875 57.8958 177.396 57.3333 177.562 57C177.521 56.75 177.417 56.4792 177.25 56.1875C177.042 55.9375 176.75 55.6458 176.375 55.3125C176 54.9792 175.438 54.6042 174.688 54.1875C175.771 54.3125 176.708 54.3958 177.5 54.4375C178.333 54.4792 179.042 54.5208 179.625 54.5625C180.292 54.6042 180.875 54.6042 181.375 54.5625C181.917 54.5625 182.583 54.5417 183.375 54.5C184.75 54.4583 186.875 54.3958 189.75 54.3125C186.958 55.7708 184.75 57.0208 183.125 58.0625C182.208 58.6458 181.396 59.1875 180.688 59.6875C179.979 60.2292 179.25 60.7917 178.5 61.375C177.833 61.875 177.062 62.4583 176.188 63.125C175.354 63.7917 174.521 64.5 173.688 65.25C175.146 67.625 176.417 69.5833 177.5 71.125C178.625 72.6667 179.562 73.9167 180.312 74.875C181.188 76 181.958 76.8958 182.625 77.5625C183.292 78.1875 184.167 78.8958 185.25 79.6875C186.167 80.3958 187.354 81.2292 188.812 82.1875C190.312 83.1042 192.125 84.1667 194.25 85.375C193.167 85.1667 192.125 85.0208 191.125 84.9375C190.125 84.8958 189.271 84.8958 188.562 84.9375C187.688 84.9792 186.896 85.0625 186.188 85.1875C185.438 85.3542 184.604 85.5625 183.688 85.8125C182.896 86.0208 181.958 86.2917 180.875 86.625C179.833 87 178.688 87.4792 177.438 88.0625C178.229 87.4792 178.812 86.9167 179.188 86.375C179.604 85.875 179.896 85.4583 180.062 85.125C180.229 84.7083 180.292 84.3542 180.25 84.0625C180.042 83.6458 179.562 82.7917 178.812 81.5C178.104 80.4167 177.062 78.8333 175.688 76.75C174.312 74.6667 172.354 71.8333 169.812 68.25C169.688 68.2917 169.479 68.4167 169.188 68.625C168.938 68.8333 168.562 69.125 168.062 69.5C167.562 69.8333 166.896 70.3333 166.062 71L167.75 81.9375C167.375 82.1042 166.958 82.25 166.5 82.375C166.083 82.5 165.688 82.6042 165.312 82.6875C164.854 82.8125 164.396 82.8958 163.938 82.9375C163.479 82.9792 162.938 83.0625 162.312 83.1875C161.771 83.2708 161.125 83.375 160.375 83.5C159.625 83.6667 158.771 83.8542 157.812 84.0625C158.354 83.6875 158.792 83.25 159.125 82.75C159.458 82.2917 159.729 81.8542 159.938 81.4375C160.146 80.9792 160.333 80.5 160.5 80C160.583 79.5833 160.667 78.5 160.75 76.75C160.875 75 160.979 72.9167 161.062 70.5C161.146 68.0417 161.208 65.4167 161.25 62.625C161.333 59.8333 161.375 57.2083 161.375 54.75C161.375 52.25 161.354 50.0833 161.312 48.25C161.271 46.375 161.188 45.1667 161.062 44.625C160.854 43.9583 160.604 43.25 160.312 42.5C160.062 41.8333 159.708 41.0833 159.25 40.25C158.833 39.375 158.312 38.4375 157.688 37.4375Z" fill="black"/>
<path d="M186.75 43.125C188 43.25 189.042 43.3542 189.875 43.4375C190.75 43.5208 191.458 43.5833 192 43.625C192.625 43.6667 193.125 43.6875 193.5 43.6875C193.875 43.7292 194.375 43.7292 195 43.6875C195.542 43.6458 196.25 43.6042 197.125 43.5625C198 43.4792 199.104 43.3542 200.438 43.1875C200.146 43.6042 199.917 43.9792 199.75 44.3125C199.583 44.6042 199.438 44.875 199.312 45.125L198.938 45.875C198.854 46.125 198.771 46.375 198.688 46.625C198.604 46.8333 198.521 47.0833 198.438 47.375C198.396 47.6667 198.354 47.9792 198.312 48.3125H207.938L207.062 53.375L198.25 52.875C198.042 55 197.896 56.6458 197.812 57.8125C197.729 58.9792 197.646 59.8333 197.562 60.375L197.438 61.5C197.312 63.0833 197.188 64.8125 197.062 66.6875C196.938 68.5208 196.896 70.2292 196.938 71.8125C196.979 73.3958 197.125 74.7292 197.375 75.8125C197.625 76.8542 198.062 77.375 198.688 77.375C199.312 77.375 199.896 77.2083 200.438 76.875C200.979 76.5417 201.438 76.1458 201.812 75.6875C202.229 75.2292 202.542 74.7708 202.75 74.3125C202.958 73.8125 203.062 73.4375 203.062 73.1875C203.062 72.9375 203 72.6458 202.875 72.3125C202.667 71.6875 202.292 70.8958 201.75 69.9375C202.958 70.2292 204.021 70.5208 204.938 70.8125C205.396 70.9792 205.812 71.1458 206.188 71.3125C206.604 71.4792 207.083 71.6667 207.625 71.875C208.083 72.0833 208.667 72.3333 209.375 72.625C210.083 72.9167 210.917 73.2708 211.875 73.6875C210.958 73.8542 210.292 74.125 209.875 74.5C209.625 74.6667 209.438 74.8542 209.312 75.0625C209.021 75.5208 208.688 76.1458 208.312 76.9375C207.938 77.6875 207.375 78.4375 206.625 79.1875C205.875 79.9375 204.854 80.6042 203.562 81.1875C202.312 81.7708 200.625 82.1042 198.5 82.1875C196.292 82.2708 194.604 81.8958 193.438 81.0625C192.312 80.2292 191.479 79.2708 190.938 78.1875C190.438 77.0625 190.146 75.9583 190.062 74.875C189.979 73.7917 189.917 73.0625 189.875 72.6875C189.833 72.3125 189.833 71.375 189.875 69.875C189.917 68.375 189.979 66.7292 190.062 64.9375C190.146 63.1042 190.229 61.3542 190.312 59.6875C190.396 57.9792 190.438 56.7292 190.438 55.9375C190.438 55.5208 190.458 55.0833 190.5 54.625C190.5 54.25 190.5 53.8542 190.5 53.4375C190.542 52.9792 190.562 52.5417 190.562 52.125L181.5 52.0625L181.125 48.5L190.25 48.75C190.167 48.2917 190.062 47.875 189.938 47.5C189.854 47.0833 189.771 46.75 189.688 46.5C189.562 46.2083 189.438 45.9583 189.312 45.75C189.146 45.5417 188.958 45.3125 188.75 45.0625C188.542 44.8542 188.271 44.5833 187.938 44.25C187.604 43.9167 187.208 43.5417 186.75 43.125ZM214 57.1875C214.208 56.9375 214.333 56.4792 214.375 55.8125C214.458 55.1042 214.625 54.3125 214.875 53.4375C215.167 52.5625 215.646 51.6458 216.312 50.6875C216.979 49.7292 218.062 48.8333 219.562 48C221.021 47.1667 222.438 46.6667 223.812 46.5C225.188 46.3333 226.5 46.3958 227.75 46.6875C229 46.9792 230.167 47.4375 231.25 48.0625C232.375 48.6875 233.396 49.375 234.312 50.125C234.938 50.625 235.438 51.3542 235.812 52.3125C236.188 53.2292 236.479 54.2708 236.688 55.4375C236.896 56.6042 237.042 57.8333 237.125 59.125C237.25 60.375 237.333 61.6042 237.375 62.8125C237.417 63.9792 237.438 65.0625 237.438 66.0625C237.479 67.0208 237.562 67.8125 237.688 68.4375C237.854 69.3542 238.146 70.1458 238.562 70.8125C238.979 71.4375 239.438 71.9792 239.938 72.4375C240.438 72.8542 240.938 73.1875 241.438 73.4375C241.938 73.6875 242.375 73.875 242.75 74C243 74.125 243.229 74.2083 243.438 74.25C243.854 74.4167 244.146 74.4167 244.312 74.25C244.062 74.8333 243.833 75.3333 243.625 75.75C243.417 76.1667 243.25 76.5208 243.125 76.8125C242.958 77.1458 242.812 77.4167 242.688 77.625C242.562 77.875 242.417 78.1042 242.25 78.3125C242.125 78.5208 241.958 78.75 241.75 79C241.542 79.25 241.333 79.5208 241.125 79.8125C240.583 79.6042 240.062 79.3542 239.562 79.0625C239.104 78.7708 238.688 78.5 238.312 78.25C237.854 77.9583 237.438 77.6667 237.062 77.375C236.688 77.0833 236.333 76.75 236 76.375C235.708 76.0417 235.396 75.6875 235.062 75.3125C234.771 74.9375 234.521 74.5208 234.312 74.0625C234.062 74.6042 233.458 75.375 232.5 76.375C231.583 77.375 230.375 78.2917 228.875 79.125C227.375 79.9167 225.625 80.4792 223.625 80.8125C221.667 81.1458 219.5 80.9167 217.125 80.125C216.083 79.7917 215.104 79.3125 214.188 78.6875C213.271 78.0208 212.479 77.2292 211.812 76.3125C211.188 75.3958 210.729 74.3542 210.438 73.1875C210.188 71.9792 210.208 70.6458 210.5 69.1875C210.792 67.7292 211.312 66.5 212.062 65.5C212.812 64.5 213.708 63.6875 214.75 63.0625C215.792 62.4375 216.958 61.9583 218.25 61.625C219.542 61.2917 220.875 61.0625 222.25 60.9375C223.333 60.8958 224.417 60.9583 225.5 61.125C226.417 61.2917 227.375 61.6042 228.375 62.0625C229.375 62.4792 230.229 63.125 230.938 64C230.896 61.7917 230.812 60.0417 230.688 58.75C230.604 57.4167 230.521 56.3958 230.438 55.6875C230.271 54.8542 230.125 54.2708 230 53.9375C229.792 53.6458 229.562 53.3125 229.312 52.9375C229.104 52.5625 228.833 52.2292 228.5 51.9375C228.167 51.6042 227.75 51.3333 227.25 51.125C226.75 50.9167 226.167 50.8333 225.5 50.875C224.792 50.9167 224.229 51.1042 223.812 51.4375C223.396 51.7708 223.062 52.1667 222.812 52.625C222.604 53.0417 222.479 53.5 222.438 54C222.396 54.5 222.417 54.9375 222.5 55.3125C222.583 55.5625 222.708 55.8333 222.875 56.125C223.042 56.375 223.271 56.6458 223.562 56.9375C223.854 57.2292 224.25 57.4792 224.75 57.6875C223.792 57.8125 222.938 57.9167 222.188 58C221.438 58.0417 220.792 58.1042 220.25 58.1875C219.625 58.2708 219.083 58.3333 218.625 58.375C218.167 58.4167 217.625 58.5 217 58.625C216.458 58.7083 215.792 58.8125 215 58.9375C214.208 59.0625 213.292 59.2292 212.25 59.4375C212.5 59.1458 212.729 58.875 212.938 58.625C213.146 58.3333 213.333 58.0833 213.5 57.875C213.667 57.625 213.833 57.3958 214 57.1875ZM223.375 64.625C222.625 64.6667 221.875 64.8542 221.125 65.1875C220.375 65.4792 219.708 65.9167 219.125 66.5C218.542 67.0417 218.042 67.6875 217.625 68.4375C217.25 69.1458 217.062 69.9375 217.062 70.8125C217.062 71.6875 217.271 72.4583 217.688 73.125C218.146 73.75 218.729 74.2708 219.438 74.6875C220.188 75.1042 220.979 75.3542 221.812 75.4375C222.688 75.5208 223.542 75.4375 224.375 75.1875C225.167 74.8958 225.917 74.4375 226.625 73.8125C227.333 73.1458 227.938 72.4375 228.438 71.6875C228.938 70.8958 229.292 70.125 229.5 69.375C229.708 68.5833 229.729 67.9375 229.562 67.4375C229.229 66.3542 228.479 65.6042 227.312 65.1875C226.146 64.7292 224.833 64.5417 223.375 64.625ZM260.438 54.5C261.521 54.5 262.646 54.7083 263.812 55.125C264.979 55.5 266.104 56 267.188 56.625C268.271 57.2083 269.25 57.8542 270.125 58.5625C271.042 59.2292 271.792 59.875 272.375 60.5C273.417 61.625 274.125 63.1458 274.5 65.0625C274.917 66.9375 275 68.875 274.75 70.875C274.5 72.8333 273.917 74.6875 273 76.4375C272.083 78.1875 270.812 79.4792 269.188 80.3125C268.021 80.8958 266.875 81.3542 265.75 81.6875C264.625 82.0208 263.542 82.2708 262.5 82.4375C261.458 82.6042 260.479 82.6875 259.562 82.6875C258.646 82.6875 257.854 82.6667 257.188 82.625C255.938 82.5417 254.625 82.1042 253.25 81.3125C251.917 80.5208 250.646 79.5417 249.438 78.375C248.271 77.2083 247.271 75.9375 246.438 74.5625C245.604 73.1458 245.104 71.8125 244.938 70.5625C244.688 68.8542 244.646 67.0625 244.812 65.1875C244.979 63.3125 245.583 61.5833 246.625 60C247.708 58.4167 249.333 57.1042 251.5 56.0625C253.708 55.0208 256.688 54.5 260.438 54.5ZM258.375 78.75C258.833 78.8333 259.458 78.7292 260.25 78.4375C261.042 78.1042 261.812 77.5833 262.562 76.875C263.354 76.1667 264.042 75.2708 264.625 74.1875C265.25 73.0625 265.625 71.7083 265.75 70.125C265.875 68.5833 265.875 67.1667 265.75 65.875C265.667 64.5833 265.479 63.4583 265.188 62.5C264.896 61.5 264.562 60.6875 264.188 60.0625C263.812 59.4375 263.417 59 263 58.75C262.292 58.375 261.438 58.0833 260.438 57.875C259.438 57.625 258.583 57.6667 257.875 58C257.542 58.1667 257.125 58.5208 256.625 59.0625C256.125 59.6042 255.625 60.2917 255.125 61.125C254.625 61.9167 254.167 62.8333 253.75 63.875C253.375 64.9167 253.104 66 252.938 67.125C252.771 68.25 252.729 69.4583 252.812 70.75C252.938 72.0417 253.208 73.2708 253.625 74.4375C254.042 75.5625 254.625 76.5417 255.375 77.375C256.167 78.1667 257.167 78.625 258.375 78.75Z" fill="#A6CF00"/>
</svg>
